<svg height="942" viewBox="0 0 233.9928 234" width="942" xmlns="http://www.w3.org/2000/svg"><g fill="#56676e"><path d="m226.56445 76.155c7.614 115.444-114.02 99.593-114.02 99.593 83.534 1.182 118.761-157.126-16.774004-173.735 7.000004-1.313 14.102004-1.986 21.220004-2.013 50.276 0 93.02 31.718 109.574 76.155z"/><path d="m174.63245 123.72s28.728-120.897-100.584004-115.497c-43.362 17.099-74.05800014 59.215-74.05800014 108.573.04 5.315.442 10.62 1.20300004 15.882 27.2140001-136.78 182.2540041-92.482 173.4400041-8.957z"/><path d="m7.7474459 159.36c-1.867-132.167 119.5550041-98.317 119.5550041-98.317-83.342004-12.133-135.1270041 139.942 1.11 172.377-3.788.372-7.63.58-11.52.58-.1 0-.198-.008-.295-.016-.097-.007-.195-.015-.293-.015-5.16-.06-10.31-.46-15.418-1.196a130.5 130.5 0 0 1 -4.502004-.688c-4.922-.83-9.786-1.98-14.56-3.437-.56-.175-1.098-.383-1.637-.59l-.006-.003-.01-.004c-.414-.16-.827-.32-1.25-.463a115.582 115.582 0 0 1 -11.698-4.74l-.878-.412a93.122 93.122 0 0 1 -3.035-1.47 116.377 116.377 0 0 1 -12.81-7.592c-.325-.225-.64-.467-.954-.71l-.016-.01-.005-.005c-.263-.2-.527-.403-.798-.596a117.278 117.278 0 0 1 -11.096-9.027c-.205-.19-.413-.377-.62-.563l-.036-.032-.003-.002-.017-.016c-.305-.274-.61-.547-.91-.83a117.058 117.058 0 0 1 -28.2980001-42.223z"/><path d="m157.74645 226.18c-130.414004-1.04-97.876004-120.715-97.876004-120.715-13.302 82.982 139.123004 136.016 173.577004.617.32 3.537.543 7.107.543 10.726 0 .442-.03.877-.062 1.31v.015c-.03.387-.057.774-.063 1.165-.07 3.177-.165 6.348-.48 9.457-4.57 44.944-34.72 82.224-75.64 97.43z"/></g><path d="m149.75545 116.808c0 6.47-1.923 12.797-5.524 18.177a32.759 32.759 0 0 1 -14.71 12.05 32.836 32.836 0 0 1 -18.935 1.86 32.795 32.795 0 0 1 -16.780004-8.957 32.667 32.667 0 0 1 -7.097-35.657 32.743 32.743 0 0 1 12.075-14.68 32.815 32.815 0 0 1 18.210004-5.507 32.796 32.796 0 0 1 23.167 9.585 32.686 32.686 0 0 1 9.595 23.13z" fill="#4e4f50"/><g fill="#4e5050" transform="translate(-.009554)"><path d="m491.16 166.454h11.19v-104.454h-11.19zm-181.774-64.612v-11.192h-.746c-4.675 0-8.653.796-11.935 2.388-7.957 3.68-13.13 9.4-15.516 17.16v-18.354h-11.189v74.61h11.19v-32.828c0-8.555 2.386-15.917 7.16-22.085 5.072-6.465 11.637-9.698 19.693-9.698h1.343z"/><path d="m353.678 157.5c10.046 0 17.256-4.177 21.632-12.533h12.234c-2.586 6.764-6.713 12.236-12.383 16.414-5.568 4.18-12.78 6.268-21.63 6.268-11.24 0-20.39-3.73-27.452-11.19-6.862-7.263-10.294-16.366-10.294-27.31 0-11.04 3.283-20.143 9.847-27.306 6.963-7.46 16.014-11.192 27.153-11.192 11.14 0 20.19 3.73 27.152 11.192 6.565 7.163 9.847 16.265 9.847 27.307v4.476h-62.51c.796 6.864 3.53 12.534 8.205 17.01 4.774 4.577 10.84 6.865 18.2 6.865zm-.895-56.703c-6.863 0-12.63 2.14-17.306 6.417-4.376 4.08-7.06 9.4-8.056 15.966h50.725c-.995-6.565-3.68-11.888-8.056-15.966-4.676-4.278-10.444-6.417-17.307-6.417zm60.985 2.985c5.968-8.755 14.87-13.132 26.705-13.132 10.742 0 19.444 3.73 26.108 11.192 6.665 7.36 9.997 16.464 9.997 27.307s-3.332 19.945-9.996 27.307c-6.663 7.46-15.614 11.19-26.853 11.19-11.24 0-19.89-4.426-25.96-13.28v41.634h-11.189v-104.156h11.188zm25.213-2.985c-8.055 0-14.42 2.786-19.095 8.357-4.476 5.272-6.713 11.937-6.713 19.995 0 8.057 2.237 14.722 6.713 19.995 4.675 5.57 11.04 8.356 19.096 8.356 7.958 0 14.423-2.784 19.396-8.355 4.674-5.273 7.01-11.938 7.01-19.996 0-8.06-2.336-14.724-7.01-19.996-4.973-5.57-11.438-8.357-19.395-8.357z" fill-rule="evenodd"/><path d="m554.003 91.844h11.19v74.61h-11.19zm11.637-12.534v-14.624h-12.085v14.624h12.084zm27.014 87.144v-64.76h-15.217v-9.85h15.217v-26.71h11.19v26.71h17.156v9.85h-17.157v64.76h-11.19zm-76.654-39.304h13.626v13.63h-13.626zm13.626 27.258v-13.63h13.627v13.63zm0 0v13.63h-13.626v-13.63z"/></g></svg>